<svg width="18" height="18" viewBox="0 0 18 18" fill="none" xmlns="http://www.w3.org/2000/svg">
<path fill-rule="evenodd" clip-rule="evenodd" d="M13.718 0.9321C13.3049 0.507659 12.6351 0.507659 12.2221 0.9321L0.966817 12.4939C0.768477 12.6976 0.656982 12.9741 0.656982 13.2622V16.9132C0.656982 17.5135 1.1306 18 1.71484 18H5.26907C5.54958 18 5.81875 17.8854 6.01709 17.6817L17.272 6.11989C17.6852 5.69545 17.6852 5.00749 17.272 4.58305L13.718 0.9321ZM2.7728 15.8269V13.7123L10.6005 5.67138L12.6588 7.78568L4.83078 15.8269L2.7728 15.8269ZM14.1547 6.24894L12.0964 4.1345L12.9699 3.23717L15.0282 5.35161L14.1547 6.24894Z" fill="#3A3A3A"/>
</svg>
